# xmcd CD database file
#
# Track frame offsets:
#	150
#	20422
#	33757
#	47640
#	62510
#	73815
#	88730
#	107860
#	126700
#	144215
#	161937
#	179640
#	193802
#	206377
#	222287
#
# Disc length: 3139 seconds
#
# Revision: 0
# Processed by: cddbd v1.5.2PL0 Copyright (c) Steve Scherf et al.
# Submitted via: CDex 1.70beta2
#
DISCID=e40c410f
DTITLE=Eric Clapton - Royal Albert Hall 1944 (Disc1)
DYEAR=1994
DGENRE=Blues
TTITLE0=Terraplane Blues
TTITLE1=Kitchen Blues
TTITLE2=Malted Milk
TTITLE3=How Long
TTITLE4=Kidman Blues
TTITLE5=Country Jail
TTITLE6=Forty Four
TTITLE7=Standing Around Crying
TTITLE8=Going Away
TTITLE9=Blues All Day Long
TTITLE10=Hoochie Coochie Man
TTITLE11=It Hurt Me Too
TTITLE12=Blues Before Sunrise
TTITLE13=Someday After A While
TTITLE14=Tore Down
EXTD=YEAR: 1994
EXTT0=
EXTT1=
EXTT2=
EXTT3=
EXTT4=
EXTT5=
EXTT6=
EXTT7=
EXTT8=
EXTT9=
EXTT10=
EXTT11=
EXTT12=
EXTT13=
EXTT14=
PLAYORDER=
